<?xml version="1.0" standalone="no"?>
<!DOCTYPE svg PUBLIC "-//W3C//DTD SVG 20010904//EN"
 "http://www.w3.org/TR/2001/REC-SVG-20010904/DTD/svg10.dtd">
<svg version="1.0" xmlns="http://www.w3.org/2000/svg"
 width="840.000000pt" height="840.000000pt" viewBox="0 0 840.000000 840.000000"
 preserveAspectRatio="xMidYMid meet">
<metadata>
Created by potrace 1.11, written by Peter Selinger 2001-2013
</metadata>
<g transform="translate(0.000000,840.000000) scale(0.100000,-0.100000)"
fill="#000000" stroke="none">
<path d="M3958 8395 c-1 -1 -46 -6 -98 -9 -52 -4 -106 -8 -120 -11 -14 -2 -47
-7 -75 -10 -43 -5 -198 -29 -260 -41 -69 -13 -137 -28 -185 -41 -30 -8 -63
-16 -72 -18 -65 -14 -327 -95 -373 -114 -11 -5 -74 -30 -140 -56 -258 -102
-590 -282 -827 -448 -240 -169 -360 -270 -572 -482 -147 -147 -178 -181 -299
-332 -244 -305 -410 -578 -587 -968 -129 -283 -263 -773 -305 -1120 -4 -27 -8
-61 -10 -73 -27 -163 -27 -720 0 -932 21 -171 62 -404 90 -510 7 -28 13 -53
20 -90 3 -14 9 -36 14 -50 5 -14 19 -59 31 -100 116 -399 321 -821 575 -1185
58 -85 206 -279 224 -295 4 -3 35 -39 71 -80 98 -114 290 -303 426 -420 142
-122 492 -372 589 -420 17 -8 37 -20 45 -26 32 -26 454 -234 474 -234 4 0 25
-9 49 -19 85 -39 345 -125 487 -161 47 -12 92 -24 100 -26 169 -43 392 -78
665 -103 87 -8 599 -6 660 2 17 2 64 8 105 12 41 4 84 9 94 11 11 2 42 6 70 9
55 6 342 63 401 79 6 1 30 8 55 15 160 43 376 115 457 152 24 10 47 19 51 19
14 0 280 124 377 175 473 251 906 601 1255 1014 248 293 508 718 644 1051 15
36 31 74 35 85 27 63 36 88 61 160 31 86 97 300 104 337 3 13 11 48 19 78 16
58 51 234 63 310 3 25 8 54 10 64 2 11 6 40 9 65 3 25 7 62 10 81 27 204 28
700 1 915 -2 17 -7 57 -11 90 -3 33 -13 98 -21 145 -8 47 -17 99 -20 115 -20
116 -111 466 -129 495 -3 5 -8 19 -10 31 -19 99 -235 588 -320 724 -14 22 -28
47 -32 55 -25 56 -242 381 -302 452 -10 13 -65 79 -122 147 -113 136 -299 327
-424 436 -44 39 -82 72 -85 75 -3 3 -54 45 -115 92 -370 289 -777 509 -1215
659 -149 51 -372 114 -480 135 -14 3 -32 7 -40 9 -8 3 -33 7 -55 10 -22 4 -47
8 -55 10 -26 7 -212 33 -285 40 -38 4 -81 9 -95 12 -28 5 -596 13 -602 8z"/>
</g>
</svg>
