<svg id="Calque_1" data-name="Calque 1" xmlns="http://www.w3.org/2000/svg" xmlns:xlink="http://www.w3.org/1999/xlink" viewBox="0 0 968.02 484.01"><defs><style>.cls-1{fill:none;}.cls-2{clip-path:url(#clip-path);}.cls-3{fill:#d16a66;}.cls-4{fill:#ebebeb;}.cls-5{fill:#575b83;}.cls-6{fill:#fdfdfd;}.cls-7{fill:#508cb7;}.cls-8{fill:#dc8d8a;}.cls-9{fill:#e7e6da;}.cls-10{fill:#815bf3;}.cls-11{fill:#8abe74;}.cls-12{fill:#efa682;}.cls-13{fill:#b27e63;}.cls-14{fill:#b27d63;}.cls-15{fill:#b5b5b5;}.cls-16{fill:#575b84;}.cls-17{fill:#585c84;}.cls-18{fill:#9ab260;}.cls-19{fill:#eaca60;}.cls-20{fill:#666d7a;}.cls-21{fill:#5d647f;}.cls-22{fill:#5f667e;}.cls-23{fill:#61697c;}.cls-24{fill:#656f79;}.cls-25{fill:#666e79;}.cls-26{fill:#5c607f;}.cls-27{fill:#62697c;}.cls-28{fill:#585e81;}.cls-29{fill:#5b617f;}.cls-30{fill:#687078;}.cls-31{fill:#636a7c;}.cls-32{fill:#676f79;}.cls-33{fill:#636a7a;}.cls-34{fill:#595d81;}.cls-35{fill:#626a7c;}.cls-36{fill:#585c81;}.cls-37{fill:#585d81;}.cls-38{fill:#585e80;}.cls-39{fill:#60687d;}.cls-40{fill:#5f667d;}.cls-41{fill:#5d647e;}.cls-42{fill:#5e657e;}.cls-43{fill:#5b5f80;}.cls-44{fill:#697376;}.cls-45{fill:#666e7a;}.cls-46{fill:#677178;}.cls-47{fill:#5c637e;}</style><clipPath id="clip-path" transform="translate(-90.93 -61.14)"><rect class="cls-1" x="29" y="23" width="1130" height="1130"/></clipPath></defs><title>banner_title</title><g class="cls-2"><path class="cls-3" d="M268.2,187.28c18,73.49-2.69,141.73-46.25,152.42S128.46,299.46,110.44,226s2.68-141.73,46.25-152.41,93.49,40.23,111.51,113.72" transform="translate(-90.93 -61.14)"/><path class="cls-4" d="M177.12,62.33Q191.6,59,207.94,65.09T239.33,86q15.06,14.76,27.47,37.68T286.73,177a286.55,286.55,0,0,1,8.16,64.72q.11,30.71-7.44,55.09t-22.79,40.81a73.6,73.6,0,0,1-37.49,21.82,88.62,88.62,0,0,1-40.73.65q-19.63-4.44-36.34-19.17t-30.23-40.29Q106.37,275.1,97.51,238t-5.8-67.62q3.06-30.48,12.53-53.09t22.05-36.47Q138.86,66.9,149.06,63q7.81,2.94,11.66,6.51a45.4,45.4,0,0,1,6.69-3.82,55,55,0,0,1,9.71-3.36m70.56,127.34A213.45,213.45,0,0,0,235,152.08a194.59,194.59,0,0,0-16.92-30.67q-9-13-17.89-20t-15.6-5.69a26.27,26.27,0,0,0-9.3,5.74,51.12,51.12,0,0,0-7.2,10.6q-3.65,6.77-5.28,18a27.79,27.79,0,0,1-7.9-10.39,45.87,45.87,0,0,1-3.44-12.39,81,81,0,0,0-13.25,24A119.19,119.19,0,0,0,132,159.84a177.18,177.18,0,0,0-.17,31.19,213.58,213.58,0,0,0,5.05,32.11q7.53,32.09,17.49,53.56t21,34.19q11,12.71,22.48,17a37.14,37.14,0,0,0,22.77,1.33q13.32-3.06,21.43-15.76t11.42-31.84a186.89,186.89,0,0,0,1.91-42.85,275.35,275.35,0,0,0-7.61-49.08" transform="translate(-90.93 -61.14)"/><path class="cls-4" d="M344.25,117.12a27.33,27.33,0,0,1,16.14.7,43.19,43.19,0,0,1,14.93,9,67.29,67.29,0,0,1,12.22,15.08,72.08,72.08,0,0,1,8.08,19.22A114.76,114.76,0,0,1,399,183.56a87.22,87.22,0,0,1-1.64,23.14A51.33,51.33,0,0,1,389,226.23q-6.07,8.49-17.28,11.42-8.91,2.31-18.5-2.09a44.42,44.42,0,0,1-16.45-13.05,160.64,160.64,0,0,1,2.77,21.22,139.78,139.78,0,0,0,4.55,25.67q1.13,4.32,2.83,9.7t3.71,10.69a74.32,74.32,0,0,0,4.35,9.61,30.79,30.79,0,0,0,4.46,6.51,59.72,59.72,0,0,1-7.64,6.6,47.83,47.83,0,0,1-6.23,3.77,23.65,23.65,0,0,1-5.81,2.44c-2.5.64-4.4,0-5.71-1.89s-2.68-5.55-4.07-10.91q-1.35-5.18-3.43-14.91t-4.58-22.29q-2.52-12.54-5.35-26.38T311,215.1q-2.75-13.41-5.26-24.87T301.21,171q-2.47-9.48-4.15-14.72c-1.11-3.5-2.05-6.11-2.81-7.86a15.05,15.05,0,0,0-2-3.62c-.59-.66-1.29-1.4-2.11-2.21a30,30,0,0,1,5.24-5.21,36.65,36.65,0,0,1,6.58-4.17,23.56,23.56,0,0,1,6.5-2.15,10.76,10.76,0,0,1,5.12.2,9.43,9.43,0,0,1,3.28,3.75,70,70,0,0,1,3.54,8.28A69.72,69.72,0,0,1,329.47,127a26.17,26.17,0,0,1,14.78-9.84m15.54,105.52c3.44-.9,6.33-3.39,8.64-7.47a47.36,47.36,0,0,0,5.07-14.68A86.42,86.42,0,0,0,374.83,182a85.18,85.18,0,0,0-2.68-19.1,63.1,63.1,0,0,0-6.17-16,36.35,36.35,0,0,0-7.3-9.14,17.72,17.72,0,0,0-7.17-4,12.29,12.29,0,0,0-5.73-.19q-5.46,1.43-9.18,7.15A43.32,43.32,0,0,0,331,154.49a71.26,71.26,0,0,0-1.81,17.2,74.14,74.14,0,0,0,2.34,17.81A69.3,69.3,0,0,0,337,204a55.85,55.85,0,0,0,7.31,11,26.56,26.56,0,0,0,8,6.51,10.59,10.59,0,0,0,7.51,1.12" transform="translate(-90.93 -61.14)"/><path class="cls-4" d="M467.28,210q-20.13,5.25-34.56-5.41T412.58,172a92.94,92.94,0,0,1-3-29.75,81.28,81.28,0,0,1,5.9-26.25,59.31,59.31,0,0,1,13.38-19.9,43.11,43.11,0,0,1,19.37-11A25.23,25.23,0,0,1,468.32,88q9.46,5.67,13.13,19.75a46,46,0,0,1,.73,19.29,60.87,60.87,0,0,1-6.29,18.83,58.42,58.42,0,0,1-11.27,15.06,31.83,31.83,0,0,1-13.82,8.21,23.46,23.46,0,0,1-8.05.87,17.94,17.94,0,0,1-6.65-1.95q5.13,16.16,13.14,21t18.06,2.19a26.08,26.08,0,0,0,11.47-6.06,39.69,39.69,0,0,0,7.33-9,40.1,40.1,0,0,0,4-9.19,56.59,56.59,0,0,0,1.62-6.71,3.19,3.19,0,0,1,2.57-2.51c1.44-.38,2.46.59,3.06,2.88.55,2.12.66,5.51.35,10.19a46.93,46.93,0,0,1-3.67,14.77,49.65,49.65,0,0,1-9.54,14.61q-6.35,6.87-17.26,9.72M452,97.31q-1.72.45-5.53,5.28a58.09,58.09,0,0,0-7.33,13.11,89.33,89.33,0,0,0-5.46,19.07,68.46,68.46,0,0,0,.05,23.16q16.2-8.52,24-19.76t3.46-27.92c-1.44-5.55-3.11-9.16-5-10.82S453,97.06,452,97.31" transform="translate(-90.93 -61.14)"/><path class="cls-4" d="M551.22,176.41c.11,1.2-.59,2.66-2.08,4.38a33.56,33.56,0,0,1-5.46,5,29.68,29.68,0,0,1-6.27,3.62c-2,.84-3.53,1-4.5.41s-2.58-1.68-4.86-3.34-4.22-4.83-5.85-9.52q-2.54-7.32-5.49-18.67t-6.84-25.07l-3-11.5q-1.35-5.18-3.29-12t-4.17-14.26c1.47-1.4,3-2.78,4.6-4.11s3.08-2.5,4.47-3.47a32.09,32.09,0,0,1,4.43-3,57.41,57.41,0,0,1,8.68-4.41q3.07-1.11,4.26,1a48.12,48.12,0,0,1,1.88,8.41q.93,5.91,3.1,17.76t5.55,33.08q1.33-10.17,2.06-17.42t1.39-11.72A74.6,74.6,0,0,1,541,103q.46-4.11,1.57-9.31T545,83.8q1.4-4.65,2.73-8.38t2.33-4.6c.47-.53,2.2-1,5.17-1.35a35.45,35.45,0,0,1,9.91.34,40.7,40.7,0,0,1,11.05,3.56,18.62,18.62,0,0,1,8.47,7.77q3.38,5.86,5.64,16.33t4.11,21.64q1.84,11.19,3.81,21.1t5,14.65a21.36,21.36,0,0,0,3.07,4.72,18.45,18.45,0,0,0,2.67,3.76,8.33,8.33,0,0,0,2.87,2.16,122.42,122.42,0,0,1-10,7.52c-2.63,1.71-4.66,2.95-6.09,3.74a9.22,9.22,0,0,1-3.87,1.62q-2.82-.18-5.58-3.15c-1.85-2-3.89-5.32-6.15-10.06a32.29,32.29,0,0,1-2.42-7.5q-1.24-5.35-2.43-12.26T573,131q-1.2-7.52-2.45-14.09c-.84-4.39-1.57-8.18-2.2-11.4A36.21,36.21,0,0,0,566.65,99q-2.79-4.8-5.93-6.28t-4.14.62q-2.61,5.28-4.27,16t-2.43,23q-.78,12.33-.44,24.21a132.62,132.62,0,0,0,1.78,19.79" transform="translate(-90.93 -61.14)"/><path class="cls-5" d="M927.86,254.66c5.74,23.41-2.49,45.54-18.37,49.44s-33.4-11.93-39.15-35.34,2.49-45.54,18.37-49.43,33.41,11.92,39.15,35.33" transform="translate(-90.93 -61.14)"/><path class="cls-4" d="M466.65,442q-5.47,7.59-2.25,22.32a78.18,78.18,0,0,0,12.7,28.26,75.2,75.2,0,0,0,24,22q14.5,8.46,31.76,3.93,11.07-2.91,17.68-10.36a46.75,46.75,0,0,0,9.62-16.8,61.39,61.39,0,0,0,2.9-19.85,82.1,82.1,0,0,0-2.62-19.94Q556.9,438,549.38,430.36a57.36,57.36,0,0,0-17.7-12.24,87.14,87.14,0,0,0-22.32-6.41q-12.12-1.86-24.5-3.87-11.34-1.39-27.38-4a129.85,129.85,0,0,1-31.94-9.6,98.45,98.45,0,0,1-29.17-20q-13.29-13-19.23-35.54-3.9-14.78-.09-32a96.73,96.73,0,0,1,14.87-33.54Q403,256.9,421.26,243.74T465,223.9q25-6.59,41.83-6.18t27.29,5.33q10.51,4.9,15.81,12.51a47.58,47.58,0,0,1,7.23,15,30.11,30.11,0,0,1-.57,16.17,77.87,77.87,0,0,1-7,16.76,96.87,96.87,0,0,1-9.81,14.44,56.73,56.73,0,0,1-9,9.17,109.19,109.19,0,0,0,.21-15.86,36.77,36.77,0,0,0-6-18.61Q519.42,264,506.3,260t-38.17,2.58a90.81,90.81,0,0,0-26.72,11.86,99.15,99.15,0,0,0-20.94,18A65,65,0,0,0,408.12,313q-3.78,10.65-1.3,20.09a26.15,26.15,0,0,0,10.74,14.95,73.75,73.75,0,0,0,21,9.83,237.71,237.71,0,0,0,28.55,6.75Q483,367.51,500.35,370q16.9,2.56,33.69,6.27a146.43,146.43,0,0,1,31.07,10.48A84.48,84.48,0,0,1,589.62,404q10.21,10.48,14.43,26.49a90.73,90.73,0,0,1,2.34,34.72,86.83,86.83,0,0,1-10.77,32.46,90.79,90.79,0,0,1-23.51,26.59q-14.94,11.61-36.28,17.23a106.56,106.56,0,0,1-37.34,3.25,109.68,109.68,0,0,1-33.56-8.29A87.16,87.16,0,0,1,439.3,519.9q-10.53-9.94-13.55-21.45-3.24-12.31,0-22.39a45.46,45.46,0,0,1,10.13-17.37A58,58,0,0,1,451.06,447a41.08,41.08,0,0,1,15.59-5" transform="translate(-90.93 -61.14)"/><path class="cls-4" d="M621,395.65q-20,5.27-34.36-5.3T566.57,358.1a92.46,92.46,0,0,1-3.05-29.57,80.73,80.73,0,0,1,5.8-26.1,59,59,0,0,1,13.25-19.81,42.78,42.78,0,0,1,19.23-11,25,25,0,0,1,20,2.83q9.42,5.61,13.1,19.59a45.79,45.79,0,0,1,.77,19.18,60.86,60.86,0,0,1-6.21,18.73,58.32,58.32,0,0,1-11.16,15,31.63,31.63,0,0,1-13.72,8.19,23.56,23.56,0,0,1-8,.89,18.07,18.07,0,0,1-6.61-1.93q5.15,16.05,13.11,20.82T621,377A25.93,25.93,0,0,0,632.38,371a39.68,39.68,0,0,0,7.27-8.93,40.14,40.14,0,0,0,4-9.14,59.66,59.66,0,0,0,1.6-6.68,3.17,3.17,0,0,1,2.54-2.5c1.43-.38,2.45.58,3.05,2.86.55,2.1.67,5.47.37,10.13a46.58,46.58,0,0,1-3.61,14.68A49.18,49.18,0,0,1,638.15,386q-6.28,6.84-17.13,9.69M605.6,283.73q-1.71.45-5.48,5.26A57.06,57.06,0,0,0,592.87,302a88.53,88.53,0,0,0-5.39,19,68,68,0,0,0,.11,23q16.08-8.5,23.81-19.7t3.38-27.75c-1.45-5.51-3.11-9.1-5-10.74s-3.26-2.35-4.21-2.1" transform="translate(-90.93 -61.14)"/><path class="cls-4" d="M755.37,341.37a13.64,13.64,0,0,0,2.69,3.26,11,11,0,0,0,3.14,2.07,7.54,7.54,0,0,0,4.26.56q-.94,4.53-2.56,6.47a7.28,7.28,0,0,1-1.7,1.67,26.87,26.87,0,0,1-7.48,2.89,18.82,18.82,0,0,1-10.82-.51,13.61,13.61,0,0,1-4.27-3.46,22.91,22.91,0,0,1-4.11-5.78,75.41,75.41,0,0,1-4.39-10.29,48.85,48.85,0,0,1-5.42,15.92,37.17,37.17,0,0,1-7.93,9.87,28.49,28.49,0,0,1-10.16,6.64,27.38,27.38,0,0,1-14.2,1.14,28.6,28.6,0,0,1-13.25-6.28,45.66,45.66,0,0,1-10.65-13.21,63.36,63.36,0,0,1-6.69-19.61,70.87,70.87,0,0,1-.91-22,80.15,80.15,0,0,1,4.56-18.6,74.51,74.51,0,0,1,7.66-15A87.4,87.4,0,0,1,682,265.93a63.7,63.7,0,0,1,7.86-7.26,52.5,52.5,0,0,1,4.5-3.17,14.71,14.71,0,0,1,5.28-2,6.11,6.11,0,0,1,4.67,1.52q.79.71,2,1.62c.58.66,1.32,1.54,2.22,2.62A24.47,24.47,0,0,1,711,263a106,106,0,0,0-11,10.37,58.33,58.33,0,0,0-8.55,12.17A55.1,55.1,0,0,0,686.14,301a76.18,76.18,0,0,0-.75,20.34q.83,14.75,7.51,22.14t14,3.94a24,24,0,0,0,7.43-7.75,49.47,49.47,0,0,0,5.14-12.34q2.34-7.94,2.89-20.91-3.08-17.51-4.67-27.61t-2.09-15.48q-.44-6.29-.39-8.44a8.45,8.45,0,0,1,2.71-3.61,31.56,31.56,0,0,1,5.15-3.64,28.62,28.62,0,0,1,5.44-2.51,12.12,12.12,0,0,1,3.47-.76q.64.15,2.41,6.85t4,17q2.24,10.24,4.79,22.24t4.9,22.67q2.34,10.68,4.27,18.57t3,9.73" transform="translate(-90.93 -61.14)"/><path class="cls-4" d="M814.58,283.36q6.87.64,13.11,1.13A45.85,45.85,0,0,1,839,286.72a25.1,25.1,0,0,1,8.62,4.9,17.42,17.42,0,0,1,5.08,8.89,29.25,29.25,0,0,1,.38,13.63A32.58,32.58,0,0,1,847.12,327a45.82,45.82,0,0,1-11.93,10.92,59.12,59.12,0,0,1-17.41,7.49q-11.13,2.93-18.55,2.59a35.21,35.21,0,0,1-11.87-2.22,14.88,14.88,0,0,1-6.36-4.43,13.51,13.51,0,0,1-2.34-4.27,24.32,24.32,0,0,1-.57-7.94,31.11,31.11,0,0,1,3.06-10.41,35.38,35.38,0,0,1,2.73-4.69,19,19,0,0,1,6.87-6.39q1.15,6.72,4.39,10.29a16.71,16.71,0,0,0,7.4,4.92,23.2,23.2,0,0,0,8.81,1,45.64,45.64,0,0,0,8.65-1.36,31.66,31.66,0,0,0,7.84-3.28,37.42,37.42,0,0,0,6.77-5,20.63,20.63,0,0,0,4.44-5.75,8.1,8.1,0,0,0,.75-5.84,6.44,6.44,0,0,0-3.92-4.46,21.89,21.89,0,0,0-7.29-1.59,54.48,54.48,0,0,0-8.8.17c-3.08.31-6,.52-8.83.65s-6.6.26-11.35.39a55.2,55.2,0,0,1-14.44-1.54,37.86,37.86,0,0,1-13.54-6.2q-6.21-4.47-8.69-13.89a34,34,0,0,1,.57-20.45,53.86,53.86,0,0,1,10.1-17.3,66.64,66.64,0,0,1,15-13,57.63,57.63,0,0,1,15.52-7.14,36.27,36.27,0,0,1,8.25-1.1,26,26,0,0,1,8.9,1.32,20.46,20.46,0,0,1,7.82,4.81,20.21,20.21,0,0,1,5.14,9.64A43.06,43.06,0,0,1,836,243.4a15.2,15.2,0,0,1-1.27,6.75A8.4,8.4,0,0,1,831,254a28.12,28.12,0,0,1-5.85,2.15,16.07,16.07,0,0,1-4.43.56c-1.24-.08-2.58-.13-4-.17a10.34,10.34,0,0,1-4.24-1,36,36,0,0,0,2.7-7.73,17.8,17.8,0,0,0-.46-8.12,12.79,12.79,0,0,0-4-6.57q-3-2.58-7.82-1.3a25.8,25.8,0,0,0-9.32,4.59,28.12,28.12,0,0,0-10.49,17,22.45,22.45,0,0,0,.37,10.13q2,7.71,9.69,13t21.49,6.85" transform="translate(-90.93 -61.14)"/><path class="cls-4" d="M942.67,255.15a76.79,76.79,0,0,1,1.55,21.56,55.17,55.17,0,0,1-4.67,18.78,43.3,43.3,0,0,1-10.67,14.56,41.59,41.59,0,0,1-16.14,8.83,29.24,29.24,0,0,1-16.61.1,42.41,42.41,0,0,1-15.86-8.65,57.21,57.21,0,0,1-13-16.27,71,71,0,0,1-7.69-22.85q-3-14.79-1.15-26.4A90,90,0,0,1,863.61,225a51.37,51.37,0,0,1,6.9-12.65,61.26,61.26,0,0,1,4.55-5.32,6,6,0,0,1,3.6-1.4c1.21,0,2.54,0,4,0a3.22,3.22,0,0,1,1.52,1.13q1.67,1.69,3.38,7.05a15.3,15.3,0,0,1,2.36-6.12,15.76,15.76,0,0,1,3.81-4.06A22.22,22.22,0,0,1,899,200.7c1.28-.53,3.88-.1,7.82,1.3s8.11,4.18,12.56,8.3,8.84,9.83,13.2,17.12,7.71,16.55,10,27.73m-20.32,1.68a100,100,0,0,0-4.07-13.73,84,84,0,0,0-5.66-12.24,34.88,34.88,0,0,0-6.33-8.41q-3.22-3-5.51-2.37a19.26,19.26,0,0,0-5,4.08,29.77,29.77,0,0,0-4.28,6.92,41.9,41.9,0,0,0-3.22,12.14,19.16,19.16,0,0,1-1.4-3q-.81-1.92-1.81-5.17a66.94,66.94,0,0,1-1.94-9.1A35.79,35.79,0,0,0,880,239a105.25,105.25,0,0,0,0,13.43q.74,7.43,2,14.72a91.14,91.14,0,0,0,4.7,14.94,52.14,52.14,0,0,0,6.88,12.23,29.37,29.37,0,0,0,8.25,7.59,10.66,10.66,0,0,0,9.11,1,13.27,13.27,0,0,0,7.51-6.25,37,37,0,0,0,4.08-11.14,62.08,62.08,0,0,0,1.19-14.05,96.36,96.36,0,0,0-1.4-14.59" transform="translate(-90.93 -61.14)"/><path class="cls-4" d="M998.66,284.67q.17,1.79-2.06,4.35a33.17,33.17,0,0,1-5.42,4.94,29.16,29.16,0,0,1-6.22,3.62c-2,.84-3.51,1-4.46.41s-2.58-1.65-4.84-3.3-4.22-4.79-5.85-9.45q-2.52-7.28-5.49-18.55t-6.86-24.9l-3-11.42q-1.35-5.13-3.3-12T947,204.26q2.19-2.1,4.56-4.1c1.59-1.33,3.06-2.48,4.43-3.45a31,31,0,0,1,4.41-3,56,56,0,0,1,8.61-4.41q3.06-1.09,4.23,1a47.65,47.65,0,0,1,1.9,8.35c.61,3.91,1.66,9.79,3.11,17.64s3.32,18.82,5.6,32.87q1.3-10.11,2-17.32t1.35-11.65a70.22,70.22,0,0,1,1.12-8.53c.3-2.72.8-5.81,1.53-9.25s1.54-6.71,2.45-9.81,1.82-5.86,2.69-8.34,1.65-4,2.31-4.57q.71-.79,5.14-1.35a34.94,34.94,0,0,1,9.85.31,40.26,40.26,0,0,1,11,3.51,18.61,18.61,0,0,1,8.44,7.7q3.36,5.83,5.64,16.22t4.13,21.5q1.86,11.12,3.84,21t5,14.54a20.88,20.88,0,0,0,3.06,4.69,18.19,18.19,0,0,0,2.66,3.73,8.44,8.44,0,0,0,2.86,2.14,120.75,120.75,0,0,1-9.93,7.5q-3.91,2.55-6,3.73a9.17,9.17,0,0,1-3.85,1.62q-2.79-.18-5.55-3.12t-6.14-10A32.35,32.35,0,0,1,1025,266c-.83-3.55-1.64-7.6-2.44-12.18s-1.59-9.34-2.39-14.32-1.63-9.65-2.47-14-1.58-8.13-2.21-11.32a37.09,37.09,0,0,0-1.69-6.43q-2.79-4.75-5.92-6.22t-4.1.62q-2.59,5.25-4.21,15.91t-2.37,22.9q-.74,12.26-.38,24.06a133.13,133.13,0,0,0,1.82,19.67" transform="translate(-90.93 -61.14)"/><path class="cls-6" d="M837.68,413.05A37.29,37.29,0,1,1,791,388.45a37.29,37.29,0,0,1,46.65,24.6" transform="translate(-90.93 -61.14)"/><path class="cls-7" d="M738.42,467.37l-4.28-4.06c-1.94-.68-3.08-2.37-4.43-3.7Q722,452,714.35,444.35c-.74-.75-1.8-1.39-1.58-2.73l7.55-7.31c2.65-2.4,2.66-2.41,5.28-.08,8.26,7.32,16.48,14.69,24.8,21.93,1.44,1.25,1.3,1.9.1,3.11-2.58,2.59-5.15,5.2-7.47,8-1.68,2-3,2.33-4.61.09" transform="translate(-90.93 -61.14)"/><path class="cls-8" d="M840.46,430.46c-.7-1-.33-2.54-1.56-3.31,0-.57,0-1.14,0-1.72a7.66,7.66,0,0,1,1.58,5" transform="translate(-90.93 -61.14)"/><path class="cls-3" d="M840.46,430.46c3,16.3-1.63,30.34-13.75,41.33-21.36,19.35-54.2,13.85-68.59-11-10.86-18.78-5.89-43.86,11.32-56.93a3.62,3.62,0,0,1,2.56-1.21c-7.93,12.45-9.81,25.25-3.08,38.65,2.09,1.91,3,4.71,5,6.66a37.81,37.81,0,0,0,11.39,9.27,39.34,39.34,0,0,0,8.14,2.92A35.93,35.93,0,0,0,830,447.69c.53-.66,1.08-1.31,1.61-2,1.94-2.59,2.84-5.82,5-8.3,1.48-3.26,1.89-6.77,2.32-10.27,1.57.6,1.27,2.1,1.56,3.31" transform="translate(-90.93 -61.14)"/><path class="cls-9" d="M836.58,437.42a30,30,0,0,1-4.27,8.31c-7.56,3.75-15.62,5-24,4.77A64.68,64.68,0,0,1,797,448.82c-2.79-.58-3-.48-3.29,2.42a45.71,45.71,0,0,0-.28,6.62,3.91,3.91,0,0,1-.41,2.7,24.9,24.9,0,0,1-7.88-2.88c-.64-5.39,1-10.43,2.5-15.46a65.47,65.47,0,0,1,8.16-16.64,3.8,3.8,0,0,0,.46-4.05,53.31,53.31,0,0,0-5-8.85c-1.08-1.46-1.9-1.32-3-.12a50.68,50.68,0,0,0-12.85,24.23,41.29,41.29,0,0,0-1.06,9.34,2.87,2.87,0,0,1-.64,2.38,21.56,21.56,0,0,1-4.78-7.24c1.19-4.32,1.63-8.8,3.23-13a56,56,0,0,1,12.64-19.77c1.43-1.46,1.83-2.2-.07-3.64a70.41,70.41,0,0,0-9-5.87c1.28-1.93,3.17-3,4.72-4.38a1.62,1.62,0,0,1,2.12,0,59.54,59.54,0,0,1,19.72,21.86,14.89,14.89,0,0,1,1.88,4.16c.22,1.15,1.2,1.32,2.15,1.43a49.6,49.6,0,0,0,11.93.21c1.49-.18,2.15-.71,1.75-2.52-2.14-9.71-7.38-17.5-14.51-24.19a49.18,49.18,0,0,0-10.22-7.13c1.37-.19,2.36-.27,3.33-.48,5.62-1.18,8.81,2.75,12.09,6a54.61,54.61,0,0,1,13.84,23.39c1,3.4,1.57,3.63,4.77,2,2.33-1.2,4.66-2.4,6.9-3.75,1.19-.72,1.67-.58,1.79.79a2.09,2.09,0,0,0,0,.25c.79,6.35.12,7.25-6.33,9.57-8.62,3.11-17.4,4.48-26.5,2.83a2.86,2.86,0,0,0-3,1.26c-2.68,3.25-4.33,7.09-6.35,10.72-.66,1.18-.16,1.78.92,2.08a49.7,49.7,0,0,0,39.86-5.62" transform="translate(-90.93 -61.14)"/><path class="cls-6" d="M773.7,448.51c-.37-13.55,4.3-25.23,13.15-35.35.61-.71,1.33-1.31,1.95-2,.83-.93,1.48-.86,2.23.12a52.31,52.31,0,0,1,6,10.29,3.88,3.88,0,0,1-.49,4.21,64.65,64.65,0,0,0-10.7,26.42c-.31,1.83.3,3.76-.67,5.49a32,32,0,0,1-11.45-9.17" transform="translate(-90.93 -61.14)"/><path class="cls-6" d="M793,460.56a39.78,39.78,0,0,1,.3-11.63c.17-1.29.64-1.7,2-1.3A50.63,50.63,0,0,0,818,449.3c3.7-.63,7.58-.86,11-3,.92-.57,2.09-1.23,3.35-.61-8.56,12.7-25.62,19.14-39.28,14.83" transform="translate(-90.93 -61.14)"/><path class="cls-10" d="M651.89,455c10.08-28.16,44.55-38.61,68.43-20.73-1.69,3.46-4.83,5.51-7.61,7.9a24.69,24.69,0,0,1-10.63,2.07c-7.17-.28-13.31,1.79-18.46,6.79a3.77,3.77,0,0,1-.84.57c-6.87,3.29-13.88,6.11-21.63,6.39-1.79-2.72-4.43-2.69-7.23-2.29a1.81,1.81,0,0,1-2-.7" transform="translate(-90.93 -61.14)"/><path class="cls-10" d="M738.42,467.37c0,7.8-1.11,15.4-4.78,22.39-7.88,15-20.42,23.56-37.31,24.56-16.68,1-30-5.89-39.55-19.69,1-1.16,2.18-.95,3.33-.5.08-2.13-.66-4.42.49-6.59a1.81,1.81,0,0,1,1.69-.25c3.32.91,6.82,1.11,10,2.55.38.67.05,1.32,0,2-.43,2.92,1.37,4.89,4.28,4.31,1.72-.35,2.4.21,3.17,1.58,1.31,2.34,3.12,2.83,5.55,1.56a1.62,1.62,0,0,1,2.5.58c2.07,2.81,3.77,2.85,6.39.24.71-.71,1.17-.95,2.09-.2,2.44,2,3,1.84,4.62-.86.39-.66.72-1.36,1.58-1.55,2,.22,4,.86,6,.88s3.75-.21,4.75-2.22a2.43,2.43,0,0,1,2.07-1.28,6,6,0,0,0,5.27-4.53,3.56,3.56,0,0,1,3-2.67c2.67-.58,3.5-1.7,3.57-4.47,0-1.49.32-2.56,1.9-3.17,1.76-.69,2.16-2.24,1.8-4-.22-1.09-.9-2-1.22-3.06a28.89,28.89,0,0,1,4.48-9.8c2.05.79,3.73,2,4.37,4.23" transform="translate(-90.93 -61.14)"/><path class="cls-11" d="M660.82,487.6c-.07.83-.17,1.65-.18,2.48,0,4,0,4-3.86,4.55a66.48,66.48,0,0,0-10.65-.38c-1.68,0-1.89-.65-1.83-2.09.55-11.34,1.1-22.68,1.48-34,.07-2.18.64-3.05,2.84-2.86a19.07,19.07,0,0,0,3.27-.23,28.91,28.91,0,0,0,5-.11c2.34-.44,3.62.14,3.7,2.64.73,3.68.37,7.41.44,11.11.11,5.41.15,10.81.22,16.22a4.59,4.59,0,0,1-.45,2.7" transform="translate(-90.93 -61.14)"/><path class="cls-12" d="M660.82,487.6c-.16-4.63-.35-9.26-.45-13.89-.1-4.81-.13-9.62-.16-14.43a7.57,7.57,0,0,1,.4-1.71c7.77-.7,14.94-3.4,22-6.5.49,1.35-.48,2.24-1,3.24-2.56,4.57-3.59,9.33-1.87,14.46.89,2.66,2.64,3.36,5.07,2a6.81,6.81,0,0,0,2.85-3.49,14.92,14.92,0,0,0,1.14-4.43c.22-2.71,2.19-3.65,4.31-4.46,1.21-.46,2.11.21,2.94,1a28.29,28.29,0,0,0,7.69,5.39c3.09,1.46,6.24,2.21,9.62,1.08a5.25,5.25,0,0,1,4,.17c3.68,1.75,7.4,3.42,11.05,5.24a2.85,2.85,0,0,1,1.43,1.39,7.6,7.6,0,0,1,1.8,3.59c.25,1.83-.13,3.71-1.92,4.26s-2,1.21-1.85,2.92c.28,2.71-1.31,4.53-4.33,5a2.42,2.42,0,0,0-2.31,2.06c-.88,2.89-2.67,4.86-5.93,5.05-.58,0-1.25,0-1.43.77-.66,2.79-2.93,2.75-5,2.72a18.57,18.57,0,0,1-6.46-1.15c-.58-.42-.49-1.05-.46-1.63a2.21,2.21,0,0,0-2.43-2.6,3.13,3.13,0,0,1-2.91-2,3.42,3.42,0,0,0-5.58-1c-1.33,1.16-2.09,1-3.1-.24-1.25-1.48-2.83-2.19-4.76-1.38-1.22.51-1.92.22-2.23-1.11a3.64,3.64,0,0,0-3.47-2.89c-1.95-.16-2.77,1.3-3.51,2.82-.41.84-.42,2.07-1.77,2.2l-11.29-2.44" transform="translate(-90.93 -61.14)"/><path class="cls-13" d="M729.79,472.65c-3.82-1.84-7.63-3.7-11.46-5.5-1.28-.61-2.59-1.44-4.1-.88-5.72,2.14-10.41-.34-15-3.29-1-.64-1.82-1.53-2.78-2.23s-1.55-2.69-3.47-1.79-3.62,1.8-3.74,4.46a9.88,9.88,0,0,1-3.2,7.26c-2.93,2.57-5.88,1.78-7-1.87-1.72-5.47-.71-10.5,2.29-15.26.49-.79.86-1.65,1.29-2.48,3.12-2.89,6.42-5.48,10.64-6.67a20.63,20.63,0,0,1,6-.73,42.83,42.83,0,0,0,13.49-2.05q9,9.09,18.06,18.2c1.13,1.14,2.2,2.32,3.31,3.49l-4.35,9.34" transform="translate(-90.93 -61.14)"/><path class="cls-14" d="M672.11,490c.65-.53.68-1.34.95-2,.81-2.06,1.84-3.93,4.46-3.82,2.09.09,3.76,1.95,4.28,4.57,3.46-1.51,4.45-1.2,7.67,2.41,2.68-3.34,6-3,7.93.73.27.54.39,1,1.17,1.09,4.2.56,4.29.72,3.76,4.85a8.46,8.46,0,0,0-.93,1.5c-.48,1.36-1.08,2.59-2.71,2.67a3.26,3.26,0,0,1-3.31-2.31c-3.21,4.2-6.52,4-8.79-.7-1.29,1.34-2.77,2.19-4.66,1.52a4.72,4.72,0,0,1-3.3-3.57c-.1-.43-.38-.56-1-.48-5.63.79-7.31-1.18-5.57-6.42" transform="translate(-90.93 -61.14)"/><path class="cls-5" d="M977.1,408.78C962,397,956.39,377.59,962.62,358.89c1.21-1.11,2,0,2.85.57,4.09,2.89,8.17,5.8,12.17,8.81,1.56,1.17,3.11,1.77,4.94.86,4.32-2.16,8.18-1.31,12.17,1.19,4.16,2.61,8.67,4.67,13,7,1.26.66,2.17,1.4,2.19,3.08,0,4.6,2.44,7.86,6.38,10,6.42,3.47,12.92,6.81,19.36,10.25,1,.53,2.32.77,2.52,2.23-12,13.2-26.81,17.83-44.24,14.2-1-.84-.13-1.53.23-2.19,3.88-7.19,7.58-14.48,11.5-21.65,1-1.84,1.21-3.43,0-5.21a8.85,8.85,0,0,1-1.69-4.49,2.92,2.92,0,0,0-1.93-2.47c-2-1.07-4.1-2.08-6.08-3.24-1.47-.85-2.26-.51-3,1-4.95,9.88-10.65,19.39-15.17,29.5-.14.32-.34.58-.75.55" transform="translate(-90.93 -61.14)"/><path class="cls-15" d="M1038.23,402.82c-7.23-4.31-14.83-7.93-22.23-11.93-3.42-1.84-6.36-4.52-6.35-8.34,0-4.07-2.47-5-5.14-6.37-4.39-2.25-8.78-4.51-13.08-6.92-1.79-1-3.47-1.41-5.28-.43-4.43,2.38-8,1.28-11.63-2-3-2.72-6.57-4.84-9.87-7.23-.61-.44-1.13-1.1-2-.73-2.69-2.26-1.25-4.44.08-6.67a23.07,23.07,0,0,0,2.1-4c1-2.76,2.51-4.13,5.5-2.8a5.87,5.87,0,0,1,2.48.52c4.87,1.75,9.75,3.52,14.65,5.2a4.87,4.87,0,0,1,3.39,3.42c2.44,7.73.76,6,8.65,10.2,3.59,1.92,7.23,3.78,10.81,5.73a3.48,3.48,0,0,0,4-.06,11.34,11.34,0,0,1,10-1.1,40.57,40.57,0,0,1,6.26,2.84l15.1,8a6.11,6.11,0,0,1,2.66,1.91c3.25,3.74,3.39,5,1,9.52-1.1,2.1-2.4,4.13-3.28,6.32-1.45,3.63-3.91,5.37-7.83,5" transform="translate(-90.93 -61.14)"/><path class="cls-16" d="M1048.32,382c-4.77-1.86-9.06-4.65-13.62-6.9-3.28-1.62-6.48-3.41-9.8-4.92a10.3,10.3,0,0,0-11.05,1.27,2,2,0,0,1-2.51.15c-5.79-3.08-11.57-6.15-17.4-9.15a4.26,4.26,0,0,1-2.32-3.44c-.64-4.94-3.3-7.54-8.22-8.8a63.15,63.15,0,0,1-13.1-4.84c11-12.62,24.9-17.72,41.49-15.53-.28,1.91-2.12,1.95-3.33,2.56a21.69,21.69,0,0,0-8,6.57,20.91,20.91,0,0,0-3.66,17.17,3.48,3.48,0,0,0,2,2.48c4,2.12,8,4.21,12,6.31a3.42,3.42,0,0,0,3.16.05,16,16,0,0,1,14.48.67c3.16,1.72,3.52,1.65,5.76-1.11a19.89,19.89,0,0,0,4.15-16.29c-.26-1.71-.29-1.71,1-2.37a44.5,44.5,0,0,1,9.06,36.12" transform="translate(-90.93 -61.14)"/><path class="cls-15" d="M1039.26,345.9c-1.09.48-.46,1.29-.34,2a20.81,20.81,0,0,1-5.65,18.71c-1.14,1.21-2.06,1.43-3.46.53a16.09,16.09,0,0,0-12.13-2.58,6.27,6.27,0,0,0-2.44.63c-2.26,1.65-4.16.85-6.27-.36-3.45-2-7-3.82-10.58-5.59a4,4,0,0,1-2.35-3.32c-1.68-11.59,3.28-20.37,14.13-25,.59-.25,1.4-.19,1.62-1a8.35,8.35,0,0,0,3.23,0,2.49,2.49,0,0,1,3.26,1.64c.43,1.3-.33,2.31-.86,3.35q-2.5,4.88-5.12,9.7a4.08,4.08,0,0,0,0,4.33,29.57,29.57,0,0,1,2.13,4.34,2.52,2.52,0,0,0,3.21,1.75l.26,0c8.54-1.35,6.28.35,10.49-7.2,1.52-2.72,2.45-5.8,4.75-8.06a2.76,2.76,0,0,1,3.82,2.1c.45,1.55,1.57,2.7,2.28,4.1" transform="translate(-90.93 -61.14)"/><path class="cls-15" d="M977.1,408.78a24.17,24.17,0,0,1,2.28-5.64q6.75-12.72,13.41-25.52c.71-1.36,1.27-1.68,2.66-.85,2.49,1.47,5.09,2.76,7.66,4.07.92.46,1.58,1,1.54,2.11a8.85,8.85,0,0,0,2,5.42c1.22,1.72.86,3,0,4.62-4.29,7.72-8.06,15.74-12.66,23.3-.1.17,0,.49,0,.73-1.79,0-3,1.51-4.67,1.81q-10.25,1.83-12.22-10.05" transform="translate(-90.93 -61.14)"/><path class="cls-16" d="M1033.16,339.7c-2,4.77-4.79,9.14-7.06,13.77a2.21,2.21,0,0,1-1.78,1.27c-2.59.35-5.19.67-7.78,1.05a1.93,1.93,0,0,1-2.22-1.24,7.27,7.27,0,0,0-.69-1.63c-3.72-4.47-2.58-8.67.34-13.05a80.07,80.07,0,0,0,4.31-8.34,43.43,43.43,0,0,1,14.88,8.17" transform="translate(-90.93 -61.14)"/><path class="cls-17" d="M990.46,408.39a3.87,3.87,0,0,1-2.38,4.52,3.82,3.82,0,0,1-4.65-2.54,4.05,4.05,0,0,1,2.66-4.61,3.82,3.82,0,0,1,4.37,2.63" transform="translate(-90.93 -61.14)"/><path class="cls-18" d="M864.24,376.45c-2.33-8.49,2.07-15,10.9-16.35a47.9,47.9,0,0,1,11.84-.23c3.57-.41,6.79.95,9.7,2.6,10.26,5.79,17.23,14.08,19.32,26.08,2.26,13,.86,25.75-1.57,38.51-.58,3-1.21,6-2,8.95-.26,1-.28,2.07-1.39,2.58-1.37-.7-.14-1.83-.44-2.7,0-.73.13-1.45.19-2.18.22-1.15.11-2.33.26-3.49s0-2.24.18-3.35c-.21,1-.06,2-.2,3,0,1.06-.34,2.11-.09,3.17a9.21,9.21,0,0,0-.36,2.5c0,1.24-.2,2.47-.26,3.71,0,.92.24,2.29-1.38,2.42-1.09-1-.83-2.35-.92-3.59-.32-4.31-.22-8.67-1.49-12.87-3-10.05-9-18.16-16.58-25.24a78.19,78.19,0,0,0-11.85-8.79,46.34,46.34,0,0,1-11-9c-1.4-1.65-3.07-3.26-2.82-5.76" transform="translate(-90.93 -61.14)"/><path class="cls-19" d="M864.24,376.45c2.3,5.49,6.61,9.21,11.42,12.28,7.89,5,15.43,10.44,21.41,17.74,7.36,9,11.77,19.07,11.6,30.89,0,1.43.23,2.86.35,4.29.29.63.55,1.25-.08,1.84-1.21-.09-1.35-1.15-1.74-1.95-3.35-6.77-6.7-13.54-10.41-20.11A61.15,61.15,0,0,0,889.91,411c-2.22-2.54-4.29-2.16-5.5,1a14.19,14.19,0,0,0,.76,11.59c4.72,9.95,12.41,16.6,22.62,20.47a2.16,2.16,0,0,1,1,.7,1.18,1.18,0,0,1,.16.78c-8.48,2.12-16.74,1.05-24.71-2.13a44.45,44.45,0,0,1-22.46-63.14c.74-1.33,1.66-2.56,2.5-3.84" transform="translate(-90.93 -61.14)"/><path class="cls-19" d="M910.85,438.55c1.61-3.86,2.25-8,3-12a123.07,123.07,0,0,0,2.14-33.9c-1.39-16.24-13.48-29.84-28.58-32.5a1.78,1.78,0,0,1-.45-.24c19.07-6.8,41.32,1.6,52,19.63a44.49,44.49,0,0,1-19.52,62.85,62.51,62.51,0,0,1-9.62,3.32.43.43,0,0,1-.07-.66,2.93,2.93,0,0,1,1.3-.8,39.93,39.93,0,0,0,22.58-16.93c2.54-3.88,4-8,3.09-12.8-.34-1.68-1-3.17-2.66-3.76s-2.72.69-3.66,1.75c-4,4.53-7.17,9.7-10.31,14.87q-4.11,6.75-7.73,13.79c-.47.94-.85,2.14-2.31,2-.78-1.71,0-3.16.8-4.59" transform="translate(-90.93 -61.14)"/><path class="cls-20" d="M909.73,445.35a1.68,1.68,0,0,0,.09.32c-.34.28-.61,0-.91-.11l-.28-.52c.09-.37-.21-.71-.09-1.09s.38-.4.42-.7c0-.54-.37-1.08.06-1.6,1.09-1.95.69-4.2,1.3-6.25.31,0,.43.25.64.38,0,.92-.08,1.84-.11,2.77l-.84,4.51a2.15,2.15,0,0,1,.25,1.2c0,.44-.41.7-.53,1.09" transform="translate(-90.93 -61.14)"/><path class="cls-21" d="M909.26,409.53c-.9-2.92-1.76-5.85-2.71-8.74a7.1,7.1,0,0,0-2.92-4.3c-.2-.07-.29-.17-.26-.3s.07-.2.13-.22c1.79-.81-.56-1.44-.09-2.19.09-.29.26-.34.5-.18,2.71,3.65,3.47,8.2,5.5,12.19.55,1.07.3,3.06.65,4.61-.92.31-.83-.31-.8-.87" transform="translate(-90.93 -61.14)"/><path class="cls-22" d="M885.72,373.22a19.31,19.31,0,0,1,5.73,4.46c.41.44.15.57-.29.62-2.74-3-5.91-4.14-9.78-2.24-.46.41-.63.16-.69-.31,1.32-1.34,3.44-.83,4.79-2.11a.47.47,0,0,1,.24-.42" transform="translate(-90.93 -61.14)"/><path class="cls-23" d="M891.16,378.3c.1-.2.19-.41.29-.62,1.69,1.51,3.65,2.75,4.74,4.84.32.43.15.66-.32.76a34.13,34.13,0,0,0-4.71-5" transform="translate(-90.93 -61.14)"/><path class="cls-24" d="M898,377.86a6.2,6.2,0,0,1,3.93-3.87l-3.47,4.11a.52.52,0,0,1-.46-.24" transform="translate(-90.93 -61.14)"/><path class="cls-25" d="M909.26,409.53l.8.87c.29,1.61.57,3.22.86,4.83l-.64.13a18.7,18.7,0,0,1-1-5.83" transform="translate(-90.93 -61.14)"/><path class="cls-26" d="M895.87,383.28c.11-.25.21-.51.32-.76l.74-.74a.37.37,0,0,1,.25.6c.51,1.06,1,2.12,1.55,3.17.38.45.14.6-.31.65l-2.55-2.92" transform="translate(-90.93 -61.14)"/><path class="cls-27" d="M885.72,373.22a.55.55,0,0,1-.25.42c-1.32-.74-2.79-1.28-3.69-2.64a9.09,9.09,0,0,1,3.94,2.22" transform="translate(-90.93 -61.14)"/><path class="cls-28" d="M911.16,420.49c-.85-1.07-.82-2.29-.79-4.06,1.25,1.56.51,2.88.79,4.06" transform="translate(-90.93 -61.14)"/><path class="cls-29" d="M910.77,429.93c0-1.53,0-3.05,0-4.58,1,1.61.53,3.3.61,4.94-.4.21-.7.24-.62-.36" transform="translate(-90.93 -61.14)"/><path class="cls-30" d="M900.58,396.73a5.29,5.29,0,0,1-3.27.51c1.46-1.09,2.63-1.64,4.11-1.28-.09.47-.67.39-.84.77" transform="translate(-90.93 -61.14)"/><path class="cls-31" d="M897.18,382.38c-.08-.2-.16-.4-.25-.6,0-1.41,0-2.82,1.07-3.92l.47.25c-.44,1.42-.86,2.84-1.29,4.27" transform="translate(-90.93 -61.14)"/><path class="cls-32" d="M898.42,386.2c.1-.22.2-.43.31-.65,1.11.8,1.62,2.06,2.43,3.09-.11.21,0,.53-.3.65l-2.44-3.09" transform="translate(-90.93 -61.14)"/><path class="cls-33" d="M878.43,368.78c-1.31.71-2.07-.11-2.82-1l2.82,1" transform="translate(-90.93 -61.14)"/><path class="cls-34" d="M911.31,421.56c.05.88.1,1.76.14,2.65a1.73,1.73,0,0,1-.14-2.65" transform="translate(-90.93 -61.14)"/><path class="cls-34" d="M914.56,404.63a3.9,3.9,0,0,1-3.64.45c1.31-.75,2.14-.41,3.64-.45" transform="translate(-90.93 -61.14)"/><path class="cls-35" d="M910.77,429.93l.62.36c-.15,1.15-.29,2.3-.44,3.44a.41.41,0,0,1-.26-.62,5.31,5.31,0,0,1,.08-3.18" transform="translate(-90.93 -61.14)"/><path class="cls-36" d="M900.58,396.73l.84-.77a3.16,3.16,0,0,1,2.08,0c0,.18.09.35.13.52l-3,.24" transform="translate(-90.93 -61.14)"/><path class="cls-37" d="M903.91,393.6l-.5.18c-.24-.73-1.24-1.15-.87-2.25,1.08.33,1,1.38,1.37,2.07" transform="translate(-90.93 -61.14)"/><path class="cls-38" d="M900.85,389.29c.1-.22.21-.43.31-.65.28.66,1,1.08,1,2.21-1-.18-1-1-1.31-1.56" transform="translate(-90.93 -61.14)"/><path class="cls-39" d="M880.69,375.75l.68.31c-.39.56-1,1.23-1.56.64-.35-.34.4-.77.88-.95" transform="translate(-90.93 -61.14)"/><path class="cls-26" d="M910.69,433.11c.09.2.17.41.26.62,0,.68,0,1.37,0,2l-.64-.38a3.57,3.57,0,0,1,.37-2.29" transform="translate(-90.93 -61.14)"/><path class="cls-18" d="M909,443.25l-.21.79a17.34,17.34,0,0,1-6.75-8.16,5.59,5.59,0,0,0,.09-.7c0-.22.22-.46,0-.67a1.55,1.55,0,0,1-.12.7c0,.33-.88.16-.3,1,1.73,2.37,3.46,4.72,5.41,6.91.41.45,1.2.77.87,1.64-11.93-4.27-20.37-12.11-24.6-24.19a13.12,13.12,0,0,1,.54-9.21c1.29-3.32,4.11-3.74,6.4-1a72.56,72.56,0,0,1,8.33,13c3.49,6.62,6.91,13.28,10.36,19.92" transform="translate(-90.93 -61.14)"/><path class="cls-40" d="M907.94,444.73c-2.71-3.27-5.63-6.37-7.79-10,.87-.88.84.89,1.53.19.43-.23.72-.22.69.38,1.15,3.62,3.76,6.18,6.38,8.72l-.12,1-.69-.31" transform="translate(-90.93 -61.14)"/><path class="cls-18" d="M909.87,444.14a1,1,0,0,1,.14-1.08c1.12-.38,1.37-1.46,1.83-2.34a202.94,202.94,0,0,1,15.74-25.86,26,26,0,0,1,2.62-3.11c1.11-1.11,2.16-2.64,4.09-1.84s2.77,2.57,3.14,4.61c.86,4.73-.54,9-3,12.81a40.08,40.08,0,0,1-23.27,17.47c.12-1.61,1.79-2,2.49-3.18.47-.52,1-1,1.44-1.53-.54.61-1.19,1.12-1.71,1.75-1.14.79-1.6,2.61-3.47,2.3" transform="translate(-90.93 -61.14)"/><path class="cls-40" d="M909.87,444.14c1.56-.36,2.28-1.77,3.41-2.67.46-.37.62-.14.65.33l-2.81,3-1.39.55c0-.4.09-.81.14-1.21" transform="translate(-90.93 -61.14)"/><path class="cls-41" d="M892.34,422.35c.87.13.33,2.62,2.1,1.24a.28.28,0,0,1,.46.29c-.82,2.51,1.39,3.76,2.29,5.55-.22.52.44,1,0,1.56l-1.13-.24c-.15-.06-.23-.15-.22-.27s0-.17.07-.18c.67-1.57-.9-2.16-1.43-3.19-.73-1.42-1.63-2.74-2.46-4.11-.43-.44-.15-.58.28-.65" transform="translate(-90.93 -61.14)"/><path class="cls-41" d="M890.39,420.77c-1.4-1.17-3.27-.06-4.78-.87.66-1.42,4,1.32,3.1-2.38a5,5,0,0,1,2,2.63c.4.44.15.58-.29.62" transform="translate(-90.93 -61.14)"/><path class="cls-31" d="M896,430.3l.15.45a12.28,12.28,0,0,1-5.31-.56,10.85,10.85,0,0,1,5.16.11" transform="translate(-90.93 -61.14)"/><path class="cls-42" d="M890.39,420.77l.29-.62c.91.47,1,1.57,1.66,2.2l-.28.66a5.16,5.16,0,0,1-1.67-2.24" transform="translate(-90.93 -61.14)"/><path class="cls-43" d="M897.23,431c-.13-.52-.42-1,0-1.56l1.35,2.14c.36.46.14.62-.33.66l-1-1.24" transform="translate(-90.93 -61.14)"/><path class="cls-44" d="M898.21,432.23l.33-.65a3.44,3.44,0,0,1,1.44,2.14c-1.13,0-1.23-1-1.77-1.49" transform="translate(-90.93 -61.14)"/><path class="cls-30" d="M888.15,417c-.44.14-.57-.19-.72-.47s-.29-.67.06-.81c.18-.07.56.22.75.44a.56.56,0,0,1-.09.84" transform="translate(-90.93 -61.14)"/><path class="cls-30" d="M902.37,435.32l-.69-.38c.09-.46.09-1.35.42-1.24.72.24.56,1,.27,1.62" transform="translate(-90.93 -61.14)"/><path class="cls-35" d="M921.73,432.43l-5,6.19c.15-2,.24-3.26.33-4.58,1.06,0,.34,1.08,1.14,1.32.91-1,1.88-2.14,2.86-3.24.45-.38.6-.15.64.31" transform="translate(-90.93 -61.14)"/><path class="cls-35" d="M921.73,432.43l-.64-.31,4.18-5.56a.64.64,0,0,1,.67.34c-.47,1.41-2.29,2.11-2.06,3.89.2.42.23.73-.39.66a3.23,3.23,0,0,0-1.76,1" transform="translate(-90.93 -61.14)"/><path class="cls-42" d="M925.94,426.9l-.67-.34c-.1-1.13-.19-2.26-.31-3.65,1.18.45.41,1.7,1.21,2.06.78-.05.87-.91,1.4-1.28s.61-.14.64.33l-2.27,2.88" transform="translate(-90.93 -61.14)"/><path class="cls-45" d="M923.49,431.45c.13-.22.26-.44.4-.66,1.36.15,2.75-.36,4.84.36a10.84,10.84,0,0,1-5.24.3" transform="translate(-90.93 -61.14)"/><path class="cls-32" d="M913.93,441.8l-.65-.33,2.27-2.7c.13,1.51-.77,2.25-1.62,3" transform="translate(-90.93 -61.14)"/><path class="cls-25" d="M931.68,421.34l-.63-.19a2,2,0,0,1-.83-.95c.18-.92.92-1.43,1.49-2.07.46-.39.62-.14.67.32-.48.7-1.19,1.32-.85,2.31.31.13.36.32.15.58" transform="translate(-90.93 -61.14)"/><path class="cls-46" d="M928.21,424l-.64-.33,1.91-2.64c.24.06.54,0,.67.32L928.21,424" transform="translate(-90.93 -61.14)"/><path class="cls-47" d="M931.68,421.34l-.15-.58a5.76,5.76,0,0,1,3.3.23c-1.18.64-2.19.2-3.15.35" transform="translate(-90.93 -61.14)"/><path class="cls-25" d="M932.38,418.45l-.67-.32c.31-.58.61-1.17,1.4-1.33.27.8-.34,1.18-.73,1.65" transform="translate(-90.93 -61.14)"/><path class="cls-47" d="M930.15,421.37l-.67-.32c.24-.29.49-.57.74-.85.53.1.72.49.83.95l-.9.22" transform="translate(-90.93 -61.14)"/></g></svg>