<svg width="1164" height="300" viewBox="0 0 1164 300" fill="none" xmlns="http://www.w3.org/2000/svg">
<path d="M1109.37 292.787L1193.01 21.6859C1194.99 15.2538 1190.18 8.73786 1183.45 8.73786H260.485C258.382 8.73786 256.333 9.40071 254.628 10.6322L236.884 23.4522C231.174 27.5783 223.101 24.663 221.344 17.8402L218.809 7.99708C217.614 3.35483 213.292 0.213868 208.508 0.50981L82.6528 8.29441C78.3686 8.55941 74.7313 11.529 73.6145 15.6736L0.441325 287.229C-1.28485 293.635 3.59166 299.915 10.2257 299.83L591.273 292.351C592.088 292.34 592.899 292.23 593.687 292.023L651.782 276.751C653.716 276.243 655.758 276.326 657.644 276.989L699.639 291.768C700.705 292.143 701.828 292.335 702.958 292.335H797.25L876 294.987L1099.6 299.836C1104.06 299.933 1108.05 297.056 1109.37 292.787Z" fill="#21727D"/>
</svg>
